<svg xmlns="http://www.w3.org/2000/svg" viewBox="0 0 400 150">
  <!-- Background tickets -->
  <path d="M40,40 h60 a5,5 0 0 1 5,5 v60 a5,5 0 0 1 -5,5 h-60 a5,5 0 0 1 -5,-5 v-60 a5,5 0 0 1 5,-5 z" fill="#00C49F" transform="rotate(-10,70,70)"/>
  <path d="M50,35 h60 a5,5 0 0 1 5,5 v60 a5,5 0 0 1 -5,5 h-60 a5,5 0 0 1 -5,-5 v-60 a5,5 0 0 1 5,-5 z" fill="#FFBB28" transform="rotate(-5,80,65)"/>
  <!-- Front ticket -->
  <path d="M60,30 h60 a5,5 0 0 1 5,5 v60 a5,5 0 0 1 -5,5 h-60 a5,5 0 0 1 -5,-5 v-60 a5,5 0 0 1 5,-5 z" fill="#FF4C4C"/>

  <!-- "TIC" Text -->
  <text x="140" y="90" font-family="Poppins, sans-serif" font-size="64" fill="#333" font-weight="bold">
    <tspan fill="orange">T</tspan>
    <tspan fill="orangered">I</tspan>
    <tspan fill="red">C</tspan>
  </text>
</svg>
